<?xml version="1.0" standalone="no"?>
<!DOCTYPE svg PUBLIC "-//W3C//DTD SVG 20010904//EN"
 "http://www.w3.org/TR/2001/REC-SVG-20010904/DTD/svg10.dtd">
<svg version="1.0" xmlns="http://www.w3.org/2000/svg"
 width="75.000000pt" height="75.000000pt" viewBox="0 0 75.000000 75.000000"
 preserveAspectRatio="xMidYMid meet">
<metadata>
Created by potrace 1.14, written by Peter Selinger 2001-2017
</metadata>
<g transform="translate(0.000000,75.000000) scale(0.100000,-0.100000)"
fill="#000000" stroke="none">
<path d="M240 733 c-129 -45 -197 -132 -216 -275 -4 -32 -2 -38 13 -38 18 0
23 12 27 67 0 11 5 19 10 15 5 -3 6 2 3 12 -4 9 -3 15 2 12 4 -3 16 9 26 28
20 37 93 90 151 111 58 21 145 18 208 -6 88 -32 172 -128 184 -209 2 -14 7
-26 13 -28 5 -2 9 -8 9 -13 0 -6 -4 -8 -8 -5 -4 2 -7 -20 -7 -49 1 -30 -2 -52
-6 -49 -4 2 -6 -4 -4 -15 2 -11 -3 -25 -10 -31 -8 -6 -11 -19 -8 -27 4 -11 2
-14 -5 -9 -7 4 -17 -3 -24 -18 -6 -14 -16 -26 -21 -26 -5 0 -4 -7 3 -15 7 -8
19 -15 28 -15 8 0 12 -3 8 -7 -4 -4 -15 -8 -23 -8 -9 0 -17 -10 -20 -25 -2
-18 -1 -21 6 -10 5 8 7 18 4 24 -4 5 1 7 10 3 8 -3 21 1 28 9 10 12 8 16 -10
21 -14 4 -20 11 -17 20 3 8 6 17 6 19 0 3 5 2 10 -1 6 -4 8 -10 5 -15 -3 -4 2
-11 11 -14 15 -6 15 -4 0 18 -24 38 -18 45 10 11 15 -18 22 -23 18 -11 -6 15
-4 17 7 11 8 -5 7 -1 -3 12 -25 28 -22 40 4 17 12 -10 18 -14 15 -8 -4 7 0 17
8 24 7 6 12 17 9 25 -3 7 -1 16 5 20 6 3 11 13 11 21 0 8 -5 12 -10 9 -6 -4
-8 -11 -5 -16 3 -5 -1 -6 -10 -2 -13 5 -14 7 -3 14 11 8 5 13 -13 11 -3 -1 -6
6 -6 14 0 12 2 12 16 0 9 -8 21 -12 27 -8 14 9 14 72 0 72 -7 0 -7 3 1 8 9 5
9 20 1 55 -5 26 -13 45 -17 43 -4 -3 -7 5 -7 17 1 13 -4 21 -12 19 -8 -1 -11
2 -7 8 19 30 -77 128 -165 169 -68 31 -189 38 -260 14z m450 -261 c0 -5 -7 -9
-15 -9 -8 0 -12 4 -9 9 3 4 9 8 15 8 5 0 9 -4 9 -8z m15 -42 c3 -5 1 -10 -4
-10 -6 0 -11 5 -11 10 0 6 2 10 4 10 3 0 8 -4 11 -10z m1 -72 c1 -10 -2 -18
-8 -18 -6 0 -7 7 -4 16 4 12 2 15 -9 10 -8 -3 -15 -1 -15 5 0 18 33 5 36 -13z
m-27 -74 c10 6 7 -25 -3 -42 -5 -9 -11 -10 -20 -3 -7 6 -17 7 -22 3 -4 -4 -2
1 5 10 7 10 17 15 22 12 5 -3 9 0 9 5 0 6 -5 11 -11 11 -5 0 -7 5 -3 12 6 9 9
9 12 0 2 -7 7 -10 11 -8z"/>
<path d="M656 248 c3 -5 10 -6 15 -3 13 9 11 12 -6 12 -8 0 -12 -4 -9 -9z"/>
<path d="M243 558 c-32 -42 -19 -114 24 -124 34 -9 56 16 56 62 0 53 -54 95
-80 62z"/>
<path d="M399 552 c-16 -14 -22 -29 -22 -56 0 -46 22 -71 56 -62 45 11 59 95
20 124 -22 16 -27 15 -54 -6z"/>
<path d="M154 432 c-23 -16 -23 -42 1 -69 20 -23 27 -26 42 -17 23 15 20 64
-4 81 -19 15 -24 15 -39 5z"/>
<path d="M500 420 c-23 -23 -25 -39 -7 -64 28 -39 84 13 66 62 -10 27 -33 28
-59 2z"/>
<path d="M40 344 c10 -36 23 -71 29 -77 7 -7 5 5 -4 25 -8 21 -16 56 -17 78
-1 25 -6 40 -14 40 -10 0 -8 -15 6 -66z"/>
<path d="M271 336 c-46 -62 -55 -95 -35 -125 19 -26 44 -27 74 -1 29 25 51 25
84 -1 29 -23 60 -19 76 10 14 28 5 55 -40 116 -37 50 -44 55 -80 55 -36 0 -43
-5 -79 -54z"/>
<path d="M540 148 c0 -4 7 -8 15 -8 8 0 15 4 15 8 0 5 -7 9 -15 9 -8 0 -15 -4
-15 -9z"/>
<path d="M507 134 c3 -7 9 -14 14 -14 14 0 10 17 -5 23 -10 4 -13 1 -9 -9z"/>
<path d="M236 128 c3 -5 10 -6 15 -3 13 9 11 12 -6 12 -8 0 -12 -4 -9 -9z"/>
<path d="M270 130 c0 -5 5 -10 10 -10 6 0 10 5 10 10 0 6 -4 10 -10 10 -5 0
-10 -4 -10 -10z"/>
<path d="M306 128 c3 -5 10 -6 15 -3 13 9 11 12 -6 12 -8 0 -12 -4 -9 -9z"/>
<path d="M347 119 c4 -13 8 -18 11 -10 2 7 -1 18 -6 23 -8 8 -9 4 -5 -13z"/>
<path d="M450 130 c0 -5 5 -10 11 -10 5 0 7 5 4 10 -3 6 -8 10 -11 10 -2 0 -4
-4 -4 -10z"/>
<path d="M393 115 c-3 -9 -3 -18 -1 -21 3 -3 8 4 11 16 6 23 -1 27 -10 5z"/>
<path d="M331 104 c0 -11 3 -14 6 -6 3 7 2 16 -1 19 -3 4 -6 -2 -5 -13z"/>
<path d="M415 110 c-3 -6 1 -7 9 -4 18 7 21 14 7 14 -6 0 -13 -4 -16 -10z"/>
<path d="M480 106 c0 -8 4 -18 10 -21 6 -4 7 1 3 11 -5 13 -3 15 7 9 9 -5 11
-4 6 3 -10 17 -26 15 -26 -2z"/>
<path d="M540 105 c0 -8 2 -15 4 -15 2 0 6 7 10 15 3 8 1 15 -4 15 -6 0 -10
-7 -10 -15z"/>
<path d="M435 91 c3 -6 -3 -14 -12 -20 -10 -6 -13 -11 -7 -11 12 0 34 20 34
32 0 4 -5 8 -11 8 -5 0 -8 -4 -4 -9z"/>
<path d="M308 66 c3 -6 7 -17 8 -24 4 -27 12 -22 11 6 -1 16 -7 29 -14 29 -7
0 -9 -5 -5 -11z"/>
<path d="M510 70 c0 -4 7 -7 15 -6 23 3 26 12 5 13 -11 1 -20 -2 -20 -7z"/>
<path d="M270 66 c0 -2 8 -10 18 -17 15 -13 16 -12 3 4 -13 16 -21 21 -21 13z"/>
</g>
</svg>
